<?xml version="1.0" standalone="no"?>
<!DOCTYPE svg PUBLIC "-//W3C//DTD SVG 20010904//EN"
 "http://www.w3.org/TR/2001/REC-SVG-20010904/DTD/svg10.dtd">
<svg version="1.0" xmlns="http://www.w3.org/2000/svg"
 width="700.000000pt" height="700.000000pt" viewBox="0 0 700.000000 700.000000"
 preserveAspectRatio="xMidYMid meet">
<metadata>
Created by potrace 1.14, written by Peter Selinger 2001-2017
</metadata>
<g transform="translate(0.000000,700.000000) scale(0.100000,-0.100000)"
fill="#000000" stroke="none">
<path d="M2201 6974 c-40 -34 -51 -77 -51 -211 l0 -113 -368 0 c-403 0 -395 1
-427 -60 -11 -21 -15 -63 -15 -160 l0 -130 -488 0 c-535 0 -515 2 -547 -60
-13 -26 -15 -381 -15 -2975 0 -2614 2 -2949 15 -2975 33 -65 -124 -60 2072
-60 l1999 0 124 -63 c129 -65 265 -114 405 -144 116 -26 456 -25 575 0 547
118 968 484 1149 1000 51 146 72 264 78 447 6 191 -13 335 -68 506 -182 568
-678 978 -1271 1049 l-58 7 0 1590 c0 1390 -2 1593 -15 1618 -32 62 -12 60
-547 60 l-488 0 0 130 c0 97 -4 139 -15 160 -32 61 -24 60 -427 60 l-368 0 0
113 c0 134 -11 177 -51 211 l-31 26 -568 0 -568 0 -31 -26z m999 -444 l0 -230
-400 0 -400 0 0 230 0 230 400 0 400 0 0 -230z m-1048 -252 c4 -149 13 -174
73 -202 29 -14 101 -16 575 -16 474 0 546 2 575 16 60 28 69 53 73 202 l4 132
284 0 284 0 0 -230 0 -230 -1220 0 -1220 0 0 230 0 230 284 0 284 0 4 -132z
m-812 -352 c0 -122 2 -136 22 -161 45 -58 -29 -55 1438 -55 1467 0 1393 -3
1438 55 20 25 22 39 22 161 l0 134 405 0 405 0 0 -1514 0 -1514 -62 -7 c-604
-70 -1123 -522 -1283 -1117 -30 -111 -55 -291 -55 -393 0 -353 152 -752 383
-1002 l40 -43 -1782 0 -1781 0 0 2795 0 2795 405 0 405 0 0 -134z m4079 -3152
c510 -91 915 -486 1027 -1004 26 -118 26 -381 1 -500 -55 -257 -173 -476 -352
-655 -336 -336 -824 -458 -1282 -319 -112 33 -287 123 -382 194 -500 377 -659
1047 -380 1602 254 505 808 781 1368 682z"/>
<path d="M1064 5126 c-66 -29 -92 -102 -59 -166 33 -64 -20 -60 863 -60 l804
0 34 34 c19 19 34 45 35 58 4 72 -14 108 -66 132 -29 14 -120 16 -807 16 -624
-1 -779 -3 -804 -14z"/>
<path d="M1064 4426 c-66 -29 -92 -102 -59 -166 34 -65 -116 -60 1795 -60
1911 0 1761 -5 1795 60 34 65 7 138 -61 166 -49 20 -3423 20 -3470 0z"/>
<path d="M1064 3726 c-66 -29 -92 -102 -59 -166 33 -64 -26 -60 920 -60 946 0
887 -4 920 60 34 65 7 138 -61 166 -49 20 -1674 20 -1720 0z"/>
<path d="M3173 3728 c-17 -4 -43 -23 -58 -40 -24 -28 -27 -39 -22 -82 3 -40
11 -55 36 -78 61 -54 166 -28 191 48 15 43 2 100 -29 128 -26 24 -79 34 -118
24z"/>
<path d="M3623 3724 c-50 -25 -67 -61 -64 -132 1 -13 16 -39 35 -58 l34 -34
454 0 c497 0 481 -2 513 60 22 42 19 93 -7 125 -42 54 -51 55 -510 55 -365 0
-427 -3 -455 -16z"/>
<path d="M1064 3026 c-66 -29 -92 -102 -59 -166 33 -65 -85 -60 1498 -60 1587
0 1478 -5 1511 64 21 45 20 74 -4 114 -40 66 53 62 -1502 62 -1160 -1 -1419
-3 -1444 -14z"/>
<path d="M1064 2326 c-66 -29 -92 -102 -59 -166 33 -64 -56 -60 1213 -60
l1154 0 34 34 c19 19 34 45 35 58 4 72 -14 108 -66 132 -30 14 -151 16 -1157
16 -917 -1 -1129 -3 -1154 -14z"/>
<path d="M1064 1626 c-66 -29 -92 -102 -59 -166 33 -64 -20 -60 863 -60 l804
0 34 34 c19 19 34 45 35 58 4 72 -14 108 -66 132 -29 14 -120 16 -807 16 -624
-1 -779 -3 -804 -14z"/>
<path d="M5830 2194 c-14 -9 -174 -229 -355 -490 -181 -261 -333 -473 -337
-472 -4 2 -101 80 -216 175 -271 222 -277 226 -327 220 -79 -11 -127 -98 -93
-171 10 -24 567 -489 615 -514 32 -17 74 -15 108 7 25 15 490 668 759 1065 60
89 7 197 -96 196 -18 0 -44 -8 -58 -16z"/>
</g>
</svg>
